HIERARCHY
ROOT Hips
{
	OFFSET 0.000000 0.000000 0.000000
	CHANNELS 6 Xposition Yposition Zposition Xrotation Yrotation Zrotation
	JOINT LHipJoint
	{
		OFFSET 0.000000 0.000000 0.000000
		CHANNELS 3 Xrotation Yrotation Zrotation
		JOINT LeftUpLeg
		{
			OFFSET 7.496830 -9.870465 4.616095
			CHANNELS 3 Xrotation Yrotation Zrotation
			JOINT LeftLeg
			{
				OFFSET 13.464605 -36.993715 0.000000
				CHANNELS 3 Xrotation Yrotation Zrotation
				JOINT LeftFoot
				{
					OFFSET 14.092100 -38.717745 0.000000
					CHANNELS 3 Xrotation Yrotation Zrotation
					JOINT LeftToeBase
					{
						OFFSET 0.867020 -2.382105 12.774025
						CHANNELS 3 Xrotation Yrotation Zrotation
						End Site
						{
							OFFSET 0.000000 0.000000 0.000000
						}
					}
				}
			}
		}
	}
	JOINT RHipJoint
	{
		OFFSET 0.000000 0.000000 0.000000
		CHANNELS 3 Xrotation Yrotation Zrotation
		JOINT RightUpLeg
		{
			OFFSET -7.180360 -9.870465 4.616095
			CHANNELS 3 Xrotation Yrotation Zrotation
			JOINT RightLeg
			{
				OFFSET -13.983915 -38.420525 0.000000
				CHANNELS 3 Xrotation Yrotation Zrotation
				JOINT RightFoot
				{
					OFFSET -14.125430 -38.809265 0.000000
					CHANNELS 3 Xrotation Yrotation Zrotation
					JOINT RightToeBase
					{
						OFFSET -0.906015 -2.489245 12.997325
						CHANNELS 3 Xrotation Yrotation Zrotation
						End Site
						{
							OFFSET 0.000000 0.000000 0.000000
						}
					}
				}
			}
		}
	}
	JOINT LowerBack
	{
		OFFSET 0.000000 0.000000 0.000000
		CHANNELS 3 Xrotation Yrotation Zrotation
		JOINT Spine
		{
			OFFSET 0.155485 11.195745 -1.063590
			CHANNELS 3 Xrotation Yrotation Zrotation
			JOINT Spine1
			{
				OFFSET 0.311960 11.268675 -0.235125
				CHANNELS 3 Xrotation Yrotation Zrotation
				JOINT Neck
				{
					OFFSET 0.000000 0.000000 0.000000
					CHANNELS 3 Xrotation Yrotation Zrotation
					JOINT Neck1
					{
						OFFSET -0.297935 9.604320 0.946110
						CHANNELS 3 Xrotation Yrotation Zrotation
						JOINT Head
						{
							OFFSET 0.572385 9.687480 -0.681835
							CHANNELS 3 Xrotation Yrotation Zrotation
							End Site
							{
								OFFSET 0.000000 0.000000 0.000000
							}
						}
					}
				}
				JOINT LeftShoulder
				{
					OFFSET 0.000000 0.000000 0.000000
					CHANNELS 3 Xrotation Yrotation Zrotation
					JOINT LeftArm
					{
						OFFSET 18.493255 6.604895 -1.711655
						CHANNELS 3 Xrotation Yrotation Zrotation
						JOINT LeftForeArm
						{
							OFFSET 27.406500 -0.000000 -0.000000
							CHANNELS 3 Xrotation Yrotation Zrotation
							JOINT LeftHand
							{
								OFFSET 19.159580 -0.000000 -0.000000
								CHANNELS 3 Xrotation Yrotation Zrotation
								End Site
								{
									OFFSET 0.000000 0.000000 0.000000
								}
							}
						}
					}
				}
				JOINT RightShoulder
				{
					OFFSET 0.000000 0.000000 0.000000
					CHANNELS 3 Xrotation Yrotation Zrotation
					JOINT RightArm
					{
						OFFSET -17.251300 7.557275 -2.225575
						CHANNELS 3 Xrotation Yrotation Zrotation
						JOINT RightForeArm
						{
							OFFSET -28.830450 -0.000000 -0.000000
							CHANNELS 3 Xrotation Yrotation Zrotation
							JOINT RightHand
							{
								OFFSET -18.942935 -0.000000 -0.000000
								CHANNELS 3 Xrotation Yrotation Zrotation
								End Site
								{
									OFFSET 0.000000 0.000000 0.000000
								}
							}
						}
					}
				}
			}
		}
	}
}
MOTION
Frames: 15
Frame Time: 0.033333
0.000000 96.000000 0.000000 0.000000 0.000000 0.000000 0.000000 0.000000 0.000000 0.000000 0.000000 -20.000000 0.000000 0.000000 0.000000 0.000000 0.000000 0.000000 0.000000 0.000000 0.000000 0.000000 0.000000 0.000000 0.000000 0.000000 20.000000 0.000000 0.000000 0.000000 0.000000 0.000000 0.000000 0.000000 0.000000 0.000000 0.000000 0.000000 0.000000 0.000000 0.000000 0.000000 0.000000 0.000000 0.000000 0.000000 0.000000 0.000000 0.000000 0.000000 0.000000 0.000000 0.000000 0.000000 0.000000 0.000000 0.000000 0.000000 0.000000 0.000000 0.000000 0.000000 0.000000 0.000000 0.000000 0.000000 0.000000 0.000000 0.000000 0.000000 0.000000 0.000000 0.000000 0.000000 0.000000 0.000000 0.000000 0.000000 
37.775760 87.630372 150.065850 163.893439 64.316487 -165.534420 -4.387694 28.103961 -9.481206 -31.800411 -0.728792 -27.223055 87.952845 32.242826 0.943754 19.415575 -10.345524 58.941597 -7.000812 22.293798 -6.998351 -6.566646 -22.623309 -5.770931 -37.762368 7.589148 19.411305 35.025389 -6.104493 -15.055473 14.841396 9.763184 -39.273182 -7.800298 -5.239477 5.774301 29.975254 2.197712 -2.043581 10.166178 7.240423 16.700659 -31.791796 -5.248121 -14.009223 -13.872728 4.768520 -6.508544 2.509765 2.281053 -0.005703 -11.067860 3.724964 -1.505279 -5.463640 20.790587 12.382466 -3.278244 -56.813535 -75.882394 -178.892533 -58.004164 174.338107 4.464139 -17.705457 10.409453 -2.134285 -39.477660 -11.644096 23.548764 36.574539 63.878367 18.446453 52.538980 -10.137618 9.043291 18.271205 -6.454399 
43.335930 84.433745 151.999650 170.724720 55.404279 -173.422085 -6.857555 30.446266 -7.525052 -34.652898 -0.294959 -31.804343 92.391412 34.387809 2.081717 14.409525 -12.554562 55.630821 -7.645230 21.094339 -6.638082 -3.300007 -21.522313 -2.479494 -38.244277 8.451166 13.250270 45.217544 -13.180093 -14.557469 5.212002 16.178981 -23.206999 -8.141786 -8.602290 9.293575 31.572332 1.198606 -0.489157 12.277286 6.784022 15.361588 -32.472344 -4.775326 -12.444163 -14.230637 4.391310 -6.401783 1.820733 2.132719 0.992848 -11.685412 3.024274 -1.484382 -4.090503 22.086422 11.061667 1.944084 -56.895671 -70.284097 -177.273624 -59.888053 178.269726 8.524909 -17.525443 13.704574 -2.352621 -39.079579 -10.368840 22.623271 38.103833 64.865530 17.015757 50.794549 -8.822527 9.111288 18.749858 -6.841324 
48.501998 81.040767 153.370800 175.830079 47.731438 -179.396900 -9.391182 33.864999 -5.231428 -35.424711 1.102949 -37.665425 93.446954 34.514044 3.625984 10.413017 -15.219805 52.008357 -10.072245 20.677337 -6.334864 -1.109416 -23.574247 -0.174531 -38.150543 7.124830 9.962089 56.346273 -18.735452 -12.107269 -5.997062 20.967968 -16.818405 -10.934410 -10.401923 10.615302 34.516007 1.372473 0.219251 14.606730 7.934294 15.191535 -34.210990 -3.954134 -11.591974 -14.915674 3.294364 -6.491086 2.113058 1.181879 1.074204 -11.604681 2.642951 -1.626835 -2.277893 23.598441 8.121559 4.056245 -55.115043 -67.977211 -178.194271 -65.002539 179.759017 11.695666 -16.316921 16.186019 -3.945093 -38.571508 -9.366859 20.996939 40.385524 64.130394 15.137922 46.664084 -6.944905 8.187832 18.377107 -6.135913 
51.878805 78.322475 154.567050 178.097491 43.395347 177.825403 -13.067104 37.261736 -3.499674 -34.363453 3.785926 -43.488927 90.814435 33.886791 5.154259 7.623035 -16.877887 49.027079 -10.636320 20.363065 -6.677994 -0.562526 -28.648005 1.057061 -42.561234 5.791422 10.135077 68.533957 -22.909206 -7.576251 -7.118941 22.253946 -21.415164 -13.083852 -11.066017 9.553354 43.274981 3.641592 -0.177188 8.111102 9.085273 14.311995 -32.212758 -3.993295 -9.802793 -15.160041 1.111100 -6.424365 1.300212 -0.842173 0.002386 -12.437468 3.166189 -1.928872 0.019922 23.696849 5.096514 -0.930224 -49.833316 -75.020900 171.996074 -74.362595 171.845827 14.431007 -14.144747 18.174897 -7.016272 -35.657110 -9.746425 16.485794 43.475937 63.639663 14.440327 39.622953 -6.599534 7.297196 16.191750 -5.513846 
55.884098 76.407485 155.572725 179.309585 38.667068 174.419685 -15.186974 39.023471 -2.789234 -34.790119 5.456872 -46.404280 86.910748 32.145692 6.307013 6.872691 -17.533680 47.753752 -10.509938 20.627139 -6.997701 -2.055901 -32.169060 0.165003 -39.274977 2.646364 13.477678 74.701355 -27.528126 -7.610723 -10.114064 22.971636 -21.278382 -14.181446 -12.911325 8.828227 50.895723 4.076911 -3.865361 -0.004807 13.253078 18.897389 -29.409079 -4.948671 -9.237606 -16.000023 -1.029409 -6.146095 0.783816 -2.632768 -1.237776 -12.424800 3.625056 -2.168673 3.055536 22.644463 2.569295 -4.745666 -41.069270 -81.931012 146.661058 -81.831710 146.978924 14.446658 -9.622148 17.733480 -10.382425 -32.194803 -11.060556 9.743449 44.481151 64.488668 14.448500 33.417657 -7.161676 5.956571 12.880854 -4.236745 
59.327813 75.261147 154.916025 179.684866 34.842620 173.011808 -17.727641 40.310253 -1.672558 -31.653189 6.563995 -49.667642 80.107009 31.380659 8.470524 6.016076 -19.602047 45.673107 -10.278381 21.334810 -7.326665 -0.660545 -32.627006 1.080439 -36.685899 1.457451 11.799198 77.957876 -28.256942 -5.023717 -15.056615 22.644201 -19.417652 -15.067486 -13.831248 7.946756 53.670350 4.622216 -3.584340 -1.737695 13.812120 18.904638 -27.406062 -4.661606 -9.149465 -16.194576 -1.111464 -6.188553 0.126356 -2.858937 -1.031175 -12.824974 3.448995 -2.187474 5.745555 21.576023 1.573828 -2.943603 -34.330823 -82.187158 -164.926960 -86.767524 -164.605972 13.743994 -8.117367 17.144254 -13.695049 -30.220838 -13.022070 -0.106722 39.747469 69.412680 16.421754 33.900759 -10.340939 6.468038 11.775614 -4.936729 
62.334030 74.662692 153.421950 179.366090 31.740262 172.505326 -20.008558 40.878142 -1.042081 -28.295472 7.120434 -51.979492 73.211079 30.946909 11.242748 4.843666 -23.244400 44.440006 -10.379699 21.164239 -7.244988 0.625461 -32.370954 1.923364 -34.224447 0.359498 9.507421 79.721557 -28.089262 -2.319122 -18.162390 21.736286 -18.728464 -15.676573 -14.420821 6.857590 55.734205 5.104310 -2.744922 -4.242346 13.372435 18.092770 -24.136911 -4.852470 -10.040231 -15.926537 -0.230971 -6.275018 -1.167438 -2.353903 0.112820 -13.953225 2.803172 -2.130709 7.414139 21.007847 2.369828 1.180048 -33.632976 -77.914213 -137.073870 -84.774825 -136.425462 16.218390 -9.191866 18.512258 -15.897472 -29.699456 -16.252006 -9.517436 29.850588 76.985999 20.098928 43.006347 -16.023232 8.664419 13.949490 -7.850637 
65.282168 74.701468 150.925500 178.193273 27.971080 172.638700 -21.239332 40.340231 -1.097353 -25.034608 7.026730 -53.346339 66.267763 30.172242 13.952947 6.301924 -26.142544 45.493965 -10.695243 21.301870 -7.261654 1.380119 -30.783547 2.705668 -30.515643 -1.604562 5.770457 79.514296 -27.164026 0.909322 -19.547887 19.996853 -18.732165 -16.176613 -15.136085 5.620380 56.147950 5.019922 -2.146049 -5.686804 13.186725 17.996391 -22.241546 -5.663522 -10.750404 -15.910972 0.702428 -6.468269 -2.220806 -1.735226 1.014621 -14.780567 2.347843 -2.051984 8.680265 21.390722 3.076902 6.697467 -36.366850 -72.597617 -168.111369 -84.780814 -166.849777 21.265738 -10.444153 21.385336 -17.195406 -30.922606 -18.609696 -14.458621 24.796307 81.375057 30.081997 53.836658 -27.896893 13.341948 18.712359 -12.952966 
68.296635 75.280288 147.462150 176.222651 24.400083 173.059419 -20.667511 38.252087 -2.453628 -23.782164 6.952199 -51.775963 61.562529 29.094360 13.508726 7.821124 -24.147852 46.908074 -10.636405 21.310295 -7.348214 0.723985 -28.949231 2.715560 -25.208336 -5.051848 2.892638 76.591158 -26.609845 2.398778 -18.591910 18.789625 -19.429387 -16.429802 -16.304304 4.488213 54.761201 4.472048 -2.820815 -6.418145 13.518434 18.595944 -21.327643 -6.723130 -10.789606 -16.150628 1.526176 -6.530149 -2.748272 -1.086146 1.580324 -15.110776 2.139062 -1.943275 9.187888 21.631054 3.691399 12.656807 -39.862318 -67.995881 -142.772788 -83.977383 -141.252669 23.022796 -10.439398 22.127206 -16.931981 -32.661354 -19.176921 -16.462495 24.178698 82.681129 49.365027 60.791842 -48.503491 20.433362 21.949716 -20.109699 
71.311598 76.191583 142.904025 174.493564 21.421029 172.960203 -18.944666 35.551280 -4.436494 -22.926623 7.386859 -46.759486 59.771232 28.914252 9.441575 8.870487 -20.328283 54.197378 -10.634743 18.322172 -5.376714 -0.085137 -27.583529 2.427347 -19.543654 -8.652966 1.696390 72.276728 -26.866018 1.404286 -12.507122 20.030392 -21.848244 -16.980753 -19.330558 3.486784 52.132874 4.218689 -4.114100 -6.476617 14.120339 19.701230 -21.260490 -7.316420 -11.421173 -16.394951 2.323514 -6.333221 -2.559142 -0.319464 2.105373 -14.981710 1.961096 -1.819199 9.244862 21.862854 3.788869 18.171808 -42.751054 -63.495656 -103.215187 -80.613566 -102.435137 21.172347 -10.186171 20.184233 -16.056966 -34.369725 -19.352563 -14.995356 26.079139 82.196610 60.782035 66.637012 -60.177869 28.348007 22.033925 -28.236942 
73.495373 77.564383 136.482225 174.196153 18.844659 173.084723 -16.922049 33.344606 -5.798643 -18.703113 7.536344 -41.674690 58.893214 30.195424 4.928792 2.306142 -21.686504 55.578007 -12.562273 15.679722 -2.277980 3.111007 -26.070696 4.081035 -18.704443 -8.131711 -2.240827 69.975708 -26.051613 2.922304 4.689448 22.676952 -31.008121 -18.394129 -26.216925 1.672590 45.274005 4.901974 -3.402118 3.357811 14.885317 20.588436 -27.794433 -5.223636 -14.131153 -16.585969 2.576432 -6.766487 -1.679487 -0.081578 1.823483 -13.601242 1.938328 -1.762944 9.759508 23.693500 0.307098 23.146114 -43.472155 -58.422911 -71.244181 -77.544468 -72.696891 17.375952 -9.202160 16.708343 -16.852530 -37.162949 -18.956503 -9.479125 32.466147 78.028235 60.826363 67.060928 -59.862259 30.890766 22.791492 -30.257589 
74.638328 78.427250 131.667525 172.744753 16.018966 173.950228 -16.165139 31.832904 -7.162238 -17.190305 7.272548 -39.954385 60.351996 31.625401 3.618320 4.116826 -23.112521 57.685142 -14.304380 17.498804 -1.687393 2.860220 -24.563410 4.213377 -20.589067 -6.099477 -4.715990 71.948602 -27.696166 3.294448 29.307184 26.606525 -50.431718 -12.175145 -34.251566 2.827801 45.303989 5.927746 -2.362508 -0.121817 13.210534 19.426810 -26.247799 -5.772958 -14.543173 -16.273159 2.017145 -6.516229 -1.968570 -0.591988 1.385889 -14.100760 2.274779 -1.857890 10.455946 22.894022 -0.211002 17.488815 -39.220747 -64.459635 -47.050235 -73.656617 -50.624752 12.796109 -6.856769 12.997161 -16.254211 -36.752870 -18.783331 -6.225750 34.223328 76.081325 52.910682 61.464484 -50.838077 27.882874 25.514300 -26.459824 
75.470340 79.408588 127.268625 171.712287 13.117747 174.398541 -15.287909 30.782801 -8.016731 -15.950029 7.285256 -38.121866 61.687585 32.564310 1.892553 8.915499 -23.081503 61.834705 -16.728304 21.015228 -0.722668 1.675137 -23.844372 3.977801 -23.376243 -3.044155 -3.849899 73.760310 -30.679597 0.650743 50.995149 23.458932 -71.075548 -4.707909 -29.512395 7.018461 45.437150 6.599220 -1.477882 -0.865180 12.305127 18.558592 -26.114288 -5.997651 -14.618485 -16.362009 1.836059 -6.344203 -2.656856 -0.822720 1.073624 -14.520255 2.509042 -1.892637 9.962831 21.788900 -0.839306 11.534342 -34.185101 -69.284364 -38.850269 -69.915113 -42.984642 8.747091 -5.712835 10.288635 -15.771288 -35.875831 -17.666050 -3.915229 34.089497 74.019886 40.167846 53.340193 -36.561571 21.655477 24.948400 -19.864736 
76.315470 80.086655 122.814450 170.639930 9.510206 174.566432 -14.164156 29.597641 -8.422842 -13.865475 7.410486 -35.828651 62.006779 32.942391 -0.229240 11.765104 -24.151632 65.286760 -18.967208 23.303293 0.999398 0.705824 -22.086657 3.906405 -25.413110 0.994684 -0.137356 76.162097 -36.013109 -2.740479 48.312469 23.131101 -70.129240 -4.223484 -29.527055 7.419886 44.217490 6.573114 -0.410485 0.095414 11.311841 17.700671 -26.529240 -5.889001 -13.736131 -16.484772 1.669754 -6.290553 -2.329695 -0.964724 0.902596 -14.371134 2.594083 -1.915720 7.388467 21.188218 0.128540 7.489842 -33.262173 -70.800411 -30.824722 -72.249444 -34.300396 10.000456 -7.161938 11.741636 -14.807771 -34.909540 -16.029863 -1.199090 33.743836 71.324672 28.475878 42.737397 -23.561979 14.965910 20.817565 -13.091097 
